<mxfile host="app.diagrams.net" modified="2021-06-11T10:59:21.486Z" agent="5.0 (Windows NT 10.0; Win64; x64) AppleWebKit/537.36 (KHTML, like Gecko) Chrome/91.0.4472.77 Safari/537.36" etag="8vLJY2jJ1_bInLQbPYdt" version="14.7.7" type="github">
  <diagram id="j8SqJIrBXZbGOx05tyWr" name="Page-1">
    <mxGraphModel dx="1422" dy="794" grid="1" gridSize="10" guides="1" tooltips="1" connect="1" arrows="1" fold="1" page="1" pageScale="1" pageWidth="827" pageHeight="1169" math="0" shadow="0">
      <root>
        <mxCell id="0" />
        <mxCell id="1" parent="0" />
        <mxCell id="XH8BWdRMtgu910urw4hu-15" value="" style="rounded=0;whiteSpace=wrap;html=1;" vertex="1" parent="1">
          <mxGeometry x="280" y="150" width="330" height="290" as="geometry" />
        </mxCell>
        <mxCell id="XH8BWdRMtgu910urw4hu-3" value="Lorem ipsum" style="rounded=0;whiteSpace=wrap;html=1;" vertex="1" parent="1">
          <mxGeometry x="300" y="240" width="130" height="140" as="geometry" />
        </mxCell>
        <mxCell id="XH8BWdRMtgu910urw4hu-4" value="428" style="whiteSpace=wrap;html=1;aspect=fixed;" vertex="1" parent="1">
          <mxGeometry x="460" y="240" width="140" height="140" as="geometry" />
        </mxCell>
        <mxCell id="XH8BWdRMtgu910urw4hu-5" value="Ortsname:" style="text;html=1;strokeColor=none;fillColor=none;align=center;verticalAlign=middle;whiteSpace=wrap;rounded=0;" vertex="1" parent="1">
          <mxGeometry x="310" y="210" width="40" height="20" as="geometry" />
        </mxCell>
        <mxCell id="XH8BWdRMtgu910urw4hu-6" value="Postleitzahl:" style="text;html=1;strokeColor=none;fillColor=none;align=center;verticalAlign=middle;whiteSpace=wrap;rounded=0;" vertex="1" parent="1">
          <mxGeometry x="480" y="210" width="40" height="20" as="geometry" />
        </mxCell>
        <mxCell id="XH8BWdRMtgu910urw4hu-9" value="PLZ suchen" style="rounded=1;whiteSpace=wrap;html=1;fillColor=#dae8fc;strokeColor=#6c8ebf;" vertex="1" parent="1">
          <mxGeometry x="305" y="400" width="120" height="20" as="geometry" />
        </mxCell>
        <mxCell id="XH8BWdRMtgu910urw4hu-10" value="Ortsname suchen" style="rounded=1;whiteSpace=wrap;html=1;fillColor=#dae8fc;strokeColor=#6c8ebf;" vertex="1" parent="1">
          <mxGeometry x="470" y="400" width="120" height="20" as="geometry" />
        </mxCell>
        <mxCell id="XH8BWdRMtgu910urw4hu-11" value="Deutschland" style="rounded=0;whiteSpace=wrap;html=1;" vertex="1" parent="1">
          <mxGeometry x="305" y="180" width="145" height="20" as="geometry" />
        </mxCell>
        <mxCell id="XH8BWdRMtgu910urw4hu-12" value="" style="triangle;whiteSpace=wrap;html=1;rotation=90;" vertex="1" parent="1">
          <mxGeometry x="425" y="185" width="10" height="10" as="geometry" />
        </mxCell>
      </root>
    </mxGraphModel>
  </diagram>
</mxfile>
